# xmcd
#
# Track frame offsets:
#	182
#	14072
#	22925
#	34337
#	44117
#	53757
#
# Disc length: 929 seconds
#
# Revision: 0
# Processed by: cddbd v1.5.2PL0 Copyright (c) Steve Scherf et al.
# Submitted via: EasyCDDAExtractor 5.0.2.1
#
DISCID=4d039f06
DTITLE=Mad Dog Loose - Versa (EP)
DYEAR=1900
DGENRE=
TTITLE0=Versa
TTITLE1=O.D. Birdman
TTITLE2=She Makes Me Feel Free
TTITLE3=Madle Age Town
TTITLE4=Locomotion
TTITLE5=Versa
EXTD=
EXTT0=
EXTT1=
EXTT2=
EXTT3=
EXTT4=
EXTT5=
PLAYORDER=
